<?xml version="1.0" standalone="no"?>
<!DOCTYPE svg PUBLIC "-//W3C//DTD SVG 20010904//EN"
 "http://www.w3.org/TR/2001/REC-SVG-20010904/DTD/svg10.dtd">
<svg version="1.0" xmlns="http://www.w3.org/2000/svg"
 width="1280.000000pt" height="1280.000000pt" viewBox="0 0 1280.000000 1280.000000"
 preserveAspectRatio="xMidYMid meet">
<metadata>
Created by potrace 1.15, written by Peter Selinger 2001-2017
</metadata>
<g transform="translate(0.000000,1280.000000) scale(0.100000,-0.100000)"
fill="#000000" stroke="none">
<path d="M5990 12719 c-404 -26 -710 -72 -1085 -165 -540 -134 -896 -263
-1360 -494 -462 -229 -827 -468 -1242 -812 -191 -159 -569 -534 -717 -713
-800 -961 -1296 -2098 -1441 -3295 -112 -933 -47 -1771 212 -2690 93 -333 239
-704 404 -1031 38 -75 80 -148 93 -162 13 -14 54 -77 92 -139 92 -155 214
-348 220 -348 3 0 -7 21 -22 47 -39 68 -18 43 61 -72 313 -459 722 -917 1140
-1276 571 -492 1360 -944 2070 -1189 696 -239 1548 -361 2240 -321 844 49
1573 223 2325 554 1746 767 3092 2350 3565 4192 130 505 183 908 192 1461 10
611 -45 1098 -187 1659 -405 1597 -1356 2935 -2705 3806 -932 602 -1976 932
-3120 989 -232 11 -542 11 -735 -1z"/>
<path d="M1210 2800 c12 -16 24 -30 26 -30 3 0 -4 14 -16 30 -12 17 -24 30
-26 30 -3 0 4 -13 16 -30z"/>
</g>
</svg>
